<?xml version="1.0" encoding="utf-8"?>
<!-- Generator: Adobe Illustrator 27.1.0, SVG Export Plug-In . SVG Version: 6.00 Build 0)  -->
<svg version="1.1" id="Layer_1" xmlns="http://www.w3.org/2000/svg" xmlns:xlink="http://www.w3.org/1999/xlink" x="0px" y="0px"
	 viewBox="0 0 847.9 91.9" style="enable-background:new 0 0 847.9 91.9;" xml:space="preserve">
<style type="text/css">
	.st0{fill:#FFFFFF;}
</style>
<g>
	<polygon class="st0" points="228.5,7.5 266.2,7.5 266.2,0.1 223.6,0.1 219.1,3.6 219.1,36.9 228.5,36.9 	"/>
	<polygon class="st0" points="266.2,67 266.2,33.7 256.8,33.7 256.8,63.2 219.1,63.2 219.1,70.5 261.7,70.5 	"/>
	<polygon class="st0" points="487.9,7.5 516.1,7.5 516.1,36.9 525.5,36.9 525.5,3.6 521.1,0.1 482.9,0.1 478.5,3.6 478.5,36.9 
		487.9,36.9 	"/>
	<rect x="487.9" y="44.8" class="st0" width="28.3" height="7.3"/>
	<rect x="557.2" y="29.8" class="st0" width="20.5" height="7.3"/>
	<polygon class="st0" points="547,7.5 580.2,7.5 580.2,0.1 542.1,0.1 537.6,3.6 537.6,70.6 547,70.6 	"/>
	<rect x="0" y="0.1" class="st0" width="20.5" height="7.3"/>
	<polygon class="st0" points="43,7.5 67.6,7.5 67.6,0.1 45.7,0.1 38.1,0.1 33.6,3.6 33.6,70.6 43,70.6 	"/>
	<polygon class="st0" points="315.3,63.3 277.6,63.3 277.6,70.7 290.7,70.7 312.6,70.7 320.2,70.7 324.7,67.2 324.7,26.2 
		315.3,26.2 	"/>
	<rect x="282.1" y="18.6" class="st0" width="33.2" height="7.3"/>
	<polygon class="st0" points="300.3,33.6 277.6,51.7 277.6,60.2 305.6,38.6 	"/>
	<polygon class="st0" points="436.5,63.3 398.9,63.3 398.9,70.7 411.9,70.7 433.9,70.7 441.5,70.7 445.9,67.2 445.9,26.2 
		436.5,26.2 	"/>
	<rect x="403.3" y="18.6" class="st0" width="33.2" height="7.3"/>
	<polygon class="st0" points="421.5,33.6 398.9,51.7 398.9,60.2 426.9,38.6 	"/>
	<polygon class="st0" points="364.8,49.4 359.4,44.7 345.8,55.6 346,27.9 365.7,28.3 365.7,20.9 348.3,20.6 340.7,20.6 336.3,24 
		336.3,63.2 336.2,63.3 336.2,67.1 340.1,69 	"/>
	<rect x="340.7" y="84.6" class="st0" width="33.2" height="7.3"/>
	<polygon class="st0" points="383.3,27.9 373.9,20.6 373.9,84 383.3,84 	"/>
	<polygon class="st0" points="632.5,7.5 670.1,7.5 670.1,0.1 627.5,0.1 623.1,3.6 623.1,36.9 632.5,36.9 	"/>
	<polygon class="st0" points="670.1,67 670.1,33.7 660.7,33.7 660.7,63.2 623.1,63.2 623.1,70.5 665.7,70.5 	"/>
	<polygon class="st0" points="719.2,63.3 681.6,63.3 681.6,70.7 694.6,70.7 716.6,70.7 724.2,70.7 728.6,67.2 728.6,26.2 
		719.2,26.2 	"/>
	<rect x="686" y="18.6" class="st0" width="33.2" height="7.3"/>
	<polygon class="st0" points="704.2,33.6 681.6,51.7 681.6,60.2 709.5,38.6 	"/>
	<polygon class="st0" points="768.7,49.4 763.4,44.7 749.7,55.6 750,27.9 769.7,28.3 769.7,20.9 752.3,20.6 744.7,20.6 740.2,24 
		740.2,63.2 740.1,63.3 740.1,67.1 744.1,69 	"/>
	<rect x="744.7" y="84.6" class="st0" width="33.2" height="7.3"/>
	<polygon class="st0" points="787.3,27.9 777.9,20.6 777.9,84 787.3,84 	"/>
	<rect x="74" y="0" class="st0" width="9.4" height="70.6"/>
	<polygon class="st0" points="116.8,70.6 126.2,70.6 126.2,26.2 126.2,22.4 121.8,18.9 88.7,18.9 88.7,26.2 116.8,26.2 	"/>
	<polygon class="st0" points="145,26 173.3,26 173.3,40.9 182.7,40.9 182.7,22.1 178.3,18.6 169.7,18.6 147.7,18.6 140.1,18.6 
		135.7,22.1 135.7,63.1 145,63.1 	"/>
	<rect x="145" y="63.3" class="st0" width="33.2" height="7.3"/>
	<rect x="153.6" y="40.9" class="st0" width="29.1" height="7.3"/>
	<polygon class="st0" points="810.2,26 838.5,26 838.5,40.9 818.8,40.9 818.8,48.2 847.9,48.2 847.9,40.9 847.9,22.1 843.4,18.6 
		834.9,18.6 812.9,18.6 805.3,18.6 800.8,22.1 800.8,63.1 810.2,63.1 	"/>
	<rect x="810.2" y="63.3" class="st0" width="33.2" height="7.3"/>
</g>
</svg>
