<?xml version="1.0" encoding="utf-8"?>
<!-- Generator: Adobe Illustrator 27.1.0, SVG Export Plug-In . SVG Version: 6.00 Build 0)  -->
<svg version="1.1" id="Layer_1" xmlns="http://www.w3.org/2000/svg" xmlns:xlink="http://www.w3.org/1999/xlink" x="0px" y="0px"
	 viewBox="0 0 57 57" style="enable-background:new 0 0 57 57;" xml:space="preserve">
<style type="text/css">
	.st0{fill:#FFFF00;}
</style>
<polygon class="st0" points="57,36.1 43.5,57 0,57 0,0 57,0 "/>
<g>
	<path d="M41.5,25c0-1.4-1.6-1.8-3-1.8c-1.5,0-3.1,0.6-3.3,2.4v2.4c0.5-0.2,1.1-0.3,1.7-0.5C39,26.9,41.5,26.6,41.5,25 M28.3,35.9
		c-4.4,0-6.8-3.2-6.8-7.2c-0.5,0.2-1.1,0.3-1.6,0.5c-2.4,0.5-4.6,0.8-4.6,2.6s2,2.1,3.4,2.1c1.2,0,2.4-0.3,3.1-1
		c0.2,0.5,0.6,1,0.9,1.4c0.2,0.2,0.3,0.3,0.5,0.5c-1.1,0.8-2.7,1.2-4.3,1.2c-2.9,0-6-1.1-6-4.5c0-2.7,2.3-3.5,4.6-4
		c2.2-0.5,4.6-0.8,4.6-2.5c0-1.4-1.6-1.8-3-1.8c-1.5,0-3.1,0.6-3.3,2.4h-2.4c0.2-3.4,2.7-4.4,5.8-4.4c1.7,0,3.4,0.5,4.4,1.7
		c1.1-1.1,2.7-1.7,4.6-1.7c1.4,0,2.7,0.4,3.7,0.9v3.3c-0.8-1.4-2.1-2.2-3.7-2.2c-2.4,0-4.4,1.9-4.4,5.4c0,3.4,2,5.3,4.4,5.3
		s4.4-1.9,4.4-5.3V16.1h2.4v5.6c1-0.5,2.1-0.6,3.5-0.6c2.4,0,5.3,1.1,5.3,4c0,2.7-2.4,3.5-4.6,4c-2.1,0.5-4.2,0.8-4.5,2.2l0,0
		C33.9,34,31.7,35.9,28.3,35.9 M38.2,35.9c-1.7,0-3.4-0.4-4.6-1.3c0.2-0.2,0.2-0.2,0.3-0.3c0.4-0.5,0.7-1,1-1.5
		c0.6,0.9,2.1,1.1,3.1,1.1c1.9,0,3.7-0.7,3.8-2.7h2.4C44.1,34.6,41.4,35.9,38.2,35.9"/>
</g>
</svg>
