<?xml version="1.0" encoding="utf-8"?>
<!-- Generator: Adobe Illustrator 27.1.0, SVG Export Plug-In . SVG Version: 6.00 Build 0)  -->
<svg version="1.1" id="Layer_1" xmlns="http://www.w3.org/2000/svg" xmlns:xlink="http://www.w3.org/1999/xlink" x="0px" y="0px"
	 viewBox="0 0 316.3 228.7" style="enable-background:new 0 0 316.3 228.7;" xml:space="preserve">
<style type="text/css">
	.st0{fill:#00EF96;}
	.st1{fill:#0000FF;}
	.st2{fill:#000046;}
</style>
<g id="Laag_2">
	<g id="Laag_1-2">
		<path class="st0" d="M294.7,25.3c0-7.5-4.3-14.1-9.2-14.1H284V0h1.5c10.6,0,19.2,10,20.1,23.1l0.1,8.3v61.3v2
			c0,7.5,4.3,14.1,9.2,14.1h1.5V120h-1.5c-11,0-19.8-10.8-20.1-24.6L294.7,25.3z"/>
		<path class="st1" d="M294.7,133.3c0.3-13.8,9.2-24.6,20.1-24.6h1.5V120h-1.5c-4.9,0-9.2,6.6-9.2,14.1v2v61.3l-0.1,8.3
			c-0.9,13.1-9.5,23.1-20.1,23.1H284v-11.3h1.5c4.9,0,9.2-6.6,9.2-14.1L294.7,133.3z"/>
		<path class="st2" d="M87.2,95.1c0-0.5,0.1-0.9,0.5-1.3c0.3-0.3,0.8-0.5,1.3-0.5h5.3c0.9-0.1,1.7,0.5,1.8,1.4c0,0.1,0,0.2,0,0.3
			v30.2c-0.1,0.5,0.2,1.1,0.8,1.2c0.1,0,0.3,0,0.4,0h13.1c0.9-0.1,1.7,0.6,1.8,1.5c0,0.1,0,0.2,0,0.3v4.4c0,0.5-0.1,0.9-0.5,1.3
			c-0.3,0.3-0.8,0.5-1.3,0.5H88.9c-0.9,0.1-1.7-0.6-1.8-1.5c0-0.1,0-0.2,0-0.3V95.1z"/>
		<path class="st2" d="M115.5,113.9c0-2.8,0.6-5.6,1.7-8.2c2.1-5,6.2-9.1,11.2-11.2c5.3-2.2,11.2-2.2,16.5,0
			c5,2.1,9.1,6.2,11.2,11.2c2.2,5.3,2.2,11.2,0,16.5c-2.1,5-6.2,9.1-11.2,11.2c-5.3,2.2-11.2,2.2-16.5,0c-5-2.1-9.1-6.2-11.2-11.2
			C116,119.5,115.5,116.7,115.5,113.9z M124.2,113.9c0,1.7,0.3,3.3,1,4.8c0.6,1.5,1.5,2.9,2.7,4c1.1,1.1,2.5,2,4,2.7
			c1.5,0.7,3.2,1,4.8,1c3.3,0,6.5-1.3,8.9-3.6c1.1-1.1,2-2.5,2.7-4c0.7-1.5,1-3.2,1-4.8c0-3.3-1.3-6.5-3.6-8.9c-1.2-1.1-2.5-2-4-2.7
			c-1.5-0.7-3.2-1-4.9-1c-1.7,0-3.3,0.3-4.8,1c-1.5,0.6-2.8,1.5-4,2.7C125.5,107.4,124.2,110.6,124.2,113.9L124.2,113.9z"/>
		<path class="st2" d="M189.1,134.4c-0.3,0-0.7-0.1-1-0.2c-0.3-0.1-0.6-0.4-0.8-0.7l-12.1-17.2c-0.2-0.2-0.3-0.4-0.4-0.4
			s-0.2,0.2-0.2,0.6v16.1c0,0.5-0.2,1-0.5,1.3c-0.3,0.3-0.8,0.5-1.3,0.5h-5.3c-0.9,0.1-1.7-0.6-1.8-1.5c0-0.1,0-0.2,0-0.3V95.1
			c0-0.5,0.1-0.9,0.5-1.3c0.3-0.3,0.8-0.5,1.3-0.5h5.3c0.9-0.1,1.7,0.6,1.8,1.5c0,0.1,0,0.2,0,0.3v14.8c0,0.4,0.1,0.6,0.2,0.6
			s0.3-0.1,0.5-0.4l11.4-15.8c0.2-0.3,0.5-0.5,0.8-0.7c0.3-0.2,0.7-0.3,1.1-0.3h6.8c0.6,0,0.9,0.1,1,0.4s0,0.6-0.3,1l-12.6,16.8
			c-0.5,0.5-0.5,1.3,0,1.9l14,19.6c0.3,0.4,0.4,0.8,0.3,1s-0.4,0.4-1,0.4L189.1,134.4z"/>
		<path class="st2" d="M204.5,95.1c-0.1-0.9,0.6-1.7,1.5-1.8c0.1,0,0.2,0,0.3,0h21.6c0.5,0,0.9,0.1,1.3,0.5c0.3,0.3,0.5,0.8,0.5,1.3
			v4.4c0,0.5-0.1,0.9-0.5,1.3c-0.3,0.3-0.8,0.5-1.3,0.5h-13.4c-0.5-0.1-1.1,0.2-1.2,0.8c0,0.1,0,0.3,0,0.4v5.6
			c-0.1,0.5,0.3,1.1,0.8,1.2c0.1,0,0.3,0,0.4,0h11.1c0.5,0,0.9,0.1,1.3,0.5c0.3,0.3,0.5,0.8,0.5,1.3v4.4c0,0.5-0.1,0.9-0.5,1.3
			c-0.3,0.3-0.8,0.5-1.3,0.5h-11.1c-0.5-0.1-1.1,0.3-1.2,0.8c0,0.1,0,0.3,0,0.4v7c-0.1,0.5,0.2,1.1,0.8,1.2c0.1,0,0.3,0,0.4,0h13.4
			c0.5,0,0.9,0.1,1.3,0.5c0.3,0.3,0.5,0.8,0.5,1.3v4.4c0.1,0.9-0.6,1.7-1.5,1.8c-0.1,0-0.2,0-0.3,0h-21.6c-0.5,0-0.9-0.1-1.3-0.5
			c-0.3-0.3-0.5-0.8-0.5-1.3L204.5,95.1z"/>
		<path class="st2" d="M263.8,99.5c0,0.5-0.1,0.9-0.5,1.3c-0.3,0.3-0.8,0.5-1.3,0.5h-6.6c-0.5-0.1-1.1,0.2-1.2,0.8
			c0,0.1,0,0.3,0,0.4v30.2c0,0.5-0.1,0.9-0.5,1.3c-0.3,0.3-0.8,0.5-1.3,0.5h-5.3c-0.5,0-0.9-0.1-1.3-0.5c-0.3-0.3-0.5-0.8-0.5-1.3
			v-30.2c0.1-0.5-0.2-1.1-0.8-1.2c-0.1,0-0.3,0-0.4,0h-6.6c-0.5,0-0.9-0.1-1.3-0.5c-0.3-0.4-0.5-0.8-0.5-1.3v-4.4
			c0-0.5,0.1-0.9,0.5-1.3c0.3-0.3,0.8-0.5,1.3-0.5h24.4c0.5,0,0.9,0.1,1.3,0.5c0.3,0.3,0.5,0.8,0.5,1.3V99.5z"/>
		<path class="st2" d="M0,151.3c0-0.5,0.2-1,0.5-1.3c0.4-0.3,0.8-0.5,1.3-0.5h14.5c2.8,0,5.7,0.6,8.3,1.7c2.5,1.1,4.8,2.6,6.7,4.6
			c1.9,2,3.4,4.3,4.5,6.8c1.1,2.6,1.7,5.4,1.7,8.3c0,2.9-0.5,5.7-1.7,8.3c-1.1,2.5-2.6,4.8-4.5,6.8c-1.9,1.9-4.2,3.5-6.7,4.6
			c-2.6,1.1-5.4,1.7-8.3,1.7H1.8c-0.5,0-1-0.1-1.3-0.5c-0.3-0.4-0.5-0.9-0.5-1.4V151.3z M15.6,184c1.7,0,3.4-0.3,5-1
			c1.5-0.7,2.9-1.6,4-2.9c1.1-1.2,2-2.6,2.6-4.2c0.6-1.6,1-3.3,0.9-5.1c0-1.7-0.3-3.5-0.9-5.1c-0.6-1.6-1.5-3-2.6-4.2
			c-1.1-1.2-2.5-2.1-4-2.8c-1.6-0.7-3.3-1-5-1h-5.3c-0.6-0.1-1.1,0.3-1.2,0.9c0,0.1,0,0.2,0,0.3v23.8c-0.1,0.6,0.4,1.1,1,1.2
			c0.1,0,0.2,0,0.3,0H15.6z"/>
		<path class="st2" d="M45.7,151.3c-0.1-0.9,0.6-1.7,1.5-1.8c0.1,0,0.2,0,0.3,0H53c0.9-0.1,1.8,0.6,1.8,1.5c0,0.1,0,0.2,0,0.3v39.1
			c0.1,0.9-0.6,1.7-1.5,1.8c-0.1,0-0.2,0-0.3,0h-5.5c-0.9,0.1-1.7-0.6-1.8-1.5c0-0.1,0-0.2,0-0.3L45.7,151.3z"/>
		<path class="st2" d="M94.3,158.7c-0.3,0.5-0.8,0.7-1.3,0.7c-0.4,0-0.8-0.1-1.2-0.4c-0.9-0.6-1.9-1.1-3-1.4
			c-1.3-0.4-2.6-0.5-3.9-0.5c-1.8,0-3.5,0.4-5.1,1.1c-1.5,0.7-2.8,1.8-3.9,3.1c-1.1,1.3-2,2.8-2.5,4.4c-0.6,1.7-0.9,3.4-0.9,5.2
			c0,1.8,0.3,3.5,0.8,5.2c0.5,1.6,1.4,3.1,2.4,4.4c1.1,1.3,2.4,2.3,3.8,3.1c1.6,0.8,3.3,1.2,5.1,1.1c0.4,0,1,0,1.8-0.1
			c0.7,0,1.5-0.1,2.2-0.3c0.7-0.2,1.3-0.4,1.8-0.8c0.5-0.3,0.8-0.9,0.8-1.5v-5.7c0.1-0.6-0.4-1.1-1-1.2c-0.1,0-0.2,0-0.3,0H85
			c-0.9,0.1-1.7-0.6-1.8-1.5c0-0.1,0-0.2,0-0.3v-4.6c-0.1-0.9,0.5-1.8,1.5-1.9c0.1,0,0.2,0,0.4,0h13.4c0.9-0.1,1.7,0.6,1.8,1.5
			c0,0.1,0,0.2,0,0.3v16.7c0,0.6-0.1,1.2-0.4,1.7c-0.2,0.5-0.6,1-1,1.3c-1.9,1.4-3.9,2.5-6.1,3.3c-2.9,1-5.9,1.5-8.9,1.4
			c-3,0-5.9-0.5-8.6-1.7c-2.5-1.1-4.7-2.7-6.5-4.7c-1.8-2-3.2-4.4-4.1-7c-1-2.8-1.5-5.7-1.4-8.6c0-2.9,0.5-5.8,1.5-8.6
			c0.9-2.6,2.4-5,4.2-7c1.9-2,4.2-3.6,6.8-4.7c2.9-1.2,6-1.8,9.1-1.7c2.2,0,4.3,0.3,6.4,0.8c2,0.5,3.9,1.4,5.6,2.6
			c0.4,0.3,0.7,0.7,0.7,1.2c0,0.5-0.1,1-0.4,1.4L94.3,158.7z"/>
		<path class="st2" d="M109.7,151.3c-0.1-0.9,0.6-1.7,1.5-1.8c0.1,0,0.2,0,0.3,0h5.5c0.9-0.1,1.7,0.6,1.8,1.5c0,0.1,0,0.2,0,0.3
			v39.1c0.1,0.9-0.6,1.7-1.5,1.8c-0.1,0-0.2,0-0.3,0h-5.5c-0.9,0.1-1.7-0.6-1.8-1.5c0-0.1,0-0.2,0-0.3L109.7,151.3z"/>
		<path class="st2" d="M155.8,155.9c0.1,0.9-0.6,1.8-1.5,1.8c-0.1,0-0.2,0-0.3,0h-6.9c-0.6-0.1-1.1,0.3-1.2,0.9c0,0.1,0,0.2,0,0.3
			v31.5c0.1,0.9-0.6,1.7-1.5,1.8c-0.1,0-0.2,0-0.3,0h-5.5c-0.9,0.1-1.7-0.6-1.8-1.5c0-0.1,0-0.2,0-0.3V159c0.1-0.6-0.3-1.1-0.9-1.2
			c-0.1,0-0.2,0-0.3,0h-6.9c-0.9,0.1-1.7-0.6-1.8-1.5c0-0.1,0-0.2,0-0.3v-4.6c-0.1-0.9,0.6-1.7,1.5-1.8c0.1,0,0.2,0,0.3,0H154
			c0.9-0.1,1.7,0.6,1.8,1.5c0,0.1,0,0.2,0,0.3V155.9z"/>
		<path class="st1" d="M179.6,149.5c1.1,0,2.1,0.7,2.5,1.7l15.9,39.3c0.2,0.4,0.2,0.9,0,1.2c-0.3,0.3-0.7,0.5-1.1,0.5h-6.4
			c-0.8,0-1.5-0.4-1.7-1.2l-2.7-6.7c-0.2-0.7-0.9-1.2-1.6-1.2h-14c-0.4,0-0.7,0.1-1,0.3c-0.3,0.2-0.5,0.5-0.7,0.8l-2.7,6.7
			c-0.1,0.3-0.3,0.6-0.6,0.9c-0.3,0.2-0.6,0.3-1,0.3H158c-0.4,0.1-0.9-0.1-1.2-0.5c-0.2-0.4-0.2-0.9,0-1.2l16-39.3
			c0.2-0.5,0.5-1,1-1.2c0.5-0.3,1-0.5,1.6-0.5H179.6z M181.7,176.2c0.8,0,1.1-0.4,0.8-1.1l-2.8-7l-1.8-5.6c-0.1-0.3-0.2-0.5-0.4-0.5
			s-0.2,0.2-0.4,0.5l-1.8,5.6l-2.8,7c-0.3,0.7,0,1.1,0.8,1.1H181.7z"/>
		<path class="st1" d="M204.6,151.3c-0.1-0.9,0.6-1.7,1.5-1.8c0.1,0,0.2,0,0.3,0h5.5c0.9-0.1,1.7,0.6,1.8,1.5c0,0.1,0,0.2,0,0.3
			v31.5c-0.1,0.6,0.3,1.1,0.9,1.2c0.1,0,0.2,0,0.3,0h13.6c0.9-0.1,1.8,0.6,1.8,1.5c0,0.1,0,0.2,0,0.3v4.6c0.1,0.9-0.6,1.7-1.5,1.8
			c-0.1,0-0.2,0-0.3,0h-22.1c-0.9,0.1-1.7-0.6-1.8-1.5c0-0.1,0-0.2,0-0.3V151.3z"/>
		<path class="st1" d="M238,151.3c-0.1-0.9,0.6-1.7,1.5-1.8c0.1,0,0.2,0,0.3,0h5.5c0.9-0.1,1.7,0.6,1.8,1.5c0,0.1,0,0.2,0,0.3v31.5
			c-0.1,0.6,0.3,1.1,0.9,1.2c0.1,0,0.2,0,0.3,0H262c0.9-0.1,1.7,0.6,1.8,1.5c0,0.1,0,0.2,0,0.3v4.6c0.1,0.9-0.6,1.7-1.5,1.8
			c-0.1,0-0.2,0-0.3,0h-22.2c-0.9,0.1-1.7-0.6-1.8-1.5c0-0.1,0-0.2,0-0.3L238,151.3z"/>
		<path class="st2" d="M33.8,40.3c0.4,0.3,0.6,0.7,0.6,1.2c0,0.5-0.2,1-0.5,1.4l-2.8,3.5c-0.3,0.4-0.7,0.6-1.1,0.6
			c-0.4,0-0.9-0.2-1.2-0.5c-1-0.9-2.1-1.6-3.3-2c-1.5-0.5-3-0.8-4.6-0.8c-1.7,0-3.4,0.3-4.9,1.1c-1.5,0.7-2.7,1.7-3.8,2.9
			c-1.1,1.2-1.9,2.6-2.4,4.2c-1.1,3.2-1.1,6.7,0,9.9c0.5,1.5,1.4,3,2.4,4.2c1,1.2,2.3,2.2,3.8,2.9c1.5,0.7,3.2,1.1,4.9,1.1
			c1.6,0,3.1-0.2,4.6-0.8c1.2-0.5,2.4-1.2,3.3-2.1c0.3-0.3,0.7-0.5,1.2-0.5c0.5,0,0.9,0.3,1.1,0.6L34,71c0.3,0.4,0.5,0.9,0.5,1.4
			c0,0.5-0.2,1-0.6,1.3c-1.7,1.6-3.7,2.7-5.9,3.4c-2.3,0.7-4.6,1-7,1c-3,0.1-6-0.5-8.8-1.7c-5-2.1-8.8-6.2-10.6-11.2
			c-1.9-5.3-1.9-11.1,0-16.5c1.8-5.1,5.6-9.1,10.6-11.2c2.8-1.2,5.8-1.7,8.8-1.7c2.4,0,4.7,0.3,7,1C30.1,37.5,32.2,38.7,33.8,40.3z"
			/>
		<path class="st2" d="M73.4,36.4c0.9-0.1,1.7,0.6,1.8,1.4c0,0.1,0,0.2,0,0.3v24.9c0,2.2-0.4,4.3-1.3,6.2c-0.9,1.8-2.1,3.4-3.6,4.7
			c-1.6,1.3-3.4,2.3-5.3,3c-4.1,1.4-8.6,1.4-12.7,0c-1.9-0.7-3.7-1.7-5.3-3c-1.5-1.3-2.8-2.9-3.6-4.7c-0.9-2-1.4-4.1-1.3-6.2V38.2
			c-0.1-0.9,0.6-1.7,1.4-1.8c0.1,0,0.2,0,0.3,0h5.3c0.9-0.1,1.7,0.6,1.8,1.5c0,0.1,0,0.2,0,0.3v24.3c0,1,0.2,2.1,0.5,3
			c0.4,0.9,0.9,1.8,1.6,2.5c0.7,0.7,1.6,1.3,2.5,1.6c1,0.4,2.1,0.6,3.2,0.6c4.1,0.3,7.6-2.8,7.9-6.9c0-0.3,0-0.5,0-0.8V38.2
			c-0.1-0.9,0.6-1.7,1.5-1.8c0.1,0,0.2,0,0.3,0L73.4,36.4z"/>
		<path class="st2" d="M85.3,38.2c-0.1-0.9,0.6-1.7,1.5-1.8c0.1,0,0.2,0,0.3,0h5.3c0.5,0,0.9,0.1,1.3,0.5c0.3,0.3,0.5,0.8,0.5,1.3
			v30.2c-0.1,0.5,0.2,1.1,0.8,1.2c0.1,0,0.3,0,0.4,0h13.1c0.9-0.1,1.7,0.6,1.8,1.5c0,0.1,0,0.2,0,0.3v4.4c0,0.5-0.1,0.9-0.5,1.3
			c-0.3,0.3-0.8,0.5-1.3,0.5H87.1c-0.5,0-0.9-0.2-1.3-0.5c-0.3-0.3-0.5-0.8-0.5-1.3L85.3,38.2z"/>
		<path class="st2" d="M138.3,42.6c0.1,0.9-0.6,1.7-1.4,1.8c-0.1,0-0.2,0-0.3,0H130c-0.5-0.1-1.1,0.2-1.2,0.8c0,0.1,0,0.3,0,0.4
			v30.2c0,0.5-0.1,0.9-0.5,1.3c-0.3,0.3-0.8,0.5-1.3,0.5h-5.3c-0.5,0-0.9-0.1-1.3-0.5c-0.3-0.3-0.5-0.8-0.5-1.3V45.5
			c0.1-0.5-0.2-1.1-0.8-1.2c-0.1,0-0.3,0-0.4,0h-6.6c-0.5,0-0.9-0.1-1.3-0.5c-0.3-0.4-0.5-0.8-0.5-1.3v-4.4c0-0.5,0.1-0.9,0.5-1.3
			c0.3-0.3,0.8-0.5,1.3-0.5h24.4c0.9-0.1,1.7,0.6,1.8,1.5c0,0.1,0,0.2,0,0.3L138.3,42.6z"/>
		<path class="st2" d="M177,36.4c0.5,0,0.9,0.1,1.3,0.5c0.3,0.3,0.5,0.8,0.5,1.3v24.9c0.1,4.2-1.8,8.3-5,11c-1.6,1.3-3.4,2.3-5.3,3
			c-4.1,1.4-8.6,1.4-12.7,0c-1.9-0.7-3.7-1.7-5.3-3c-3.2-2.7-5.1-6.8-5-11V38.2c0-0.5,0.1-0.9,0.5-1.3c0.3-0.3,0.8-0.5,1.3-0.5h5.3
			c0.9-0.1,1.7,0.6,1.8,1.5c0,0.1,0,0.2,0,0.3v24.3c0,1,0.2,2.1,0.6,3.1c0.4,0.9,0.9,1.8,1.6,2.5c0.7,0.7,1.6,1.3,2.5,1.6
			c1,0.4,2.1,0.6,3.2,0.6c4.1,0.3,7.6-2.8,7.9-6.9c0-0.3,0-0.6,0-0.9V38.2c-0.1-0.9,0.6-1.7,1.5-1.8c0.1,0,0.2,0,0.3,0L177,36.4z"/>
		<path class="st2" d="M220,36.4c0.9-0.1,1.7,0.6,1.8,1.5c0,0.1,0,0.2,0,0.3v24.9c0,2.2-0.4,4.3-1.4,6.2c-0.9,1.8-2.1,3.4-3.7,4.7
			c-1.6,1.3-3.4,2.3-5.3,3c-4.1,1.4-8.6,1.4-12.7,0c-1.9-0.7-3.7-1.7-5.3-3c-1.5-1.3-2.8-2.9-3.6-4.7c-0.9-2-1.4-4.1-1.4-6.2V38.2
			c-0.1-0.9,0.6-1.7,1.5-1.8c0.1,0,0.2,0,0.3,0h5.3c0.9-0.1,1.7,0.6,1.8,1.5c0,0.1,0,0.2,0,0.3v24.3c0,1,0.2,2.1,0.6,3
			c0.3,0.9,0.9,1.8,1.6,2.5c0.7,0.7,1.6,1.3,2.5,1.6c1,0.4,2.1,0.6,3.2,0.6c4.1,0.3,7.6-2.8,7.9-6.9c0-0.3,0-0.5,0-0.8V38.2
			c0-0.5,0.1-0.9,0.5-1.3c0.3-0.3,0.8-0.5,1.3-0.5H220z"/>
		<path class="st2" d="M231.8,38.2c-0.1-0.9,0.6-1.7,1.4-1.8c0.1,0,0.2,0,0.3,0h17.2c1.7,0,3.4,0.3,5,0.9c1.5,0.6,2.9,1.5,4.1,2.6
			c1.2,1.1,2.1,2.5,2.8,4c0.7,1.7,1,3.5,1,5.3c0.1,2.4-0.7,4.7-2,6.6c-1.4,1.8-3.1,3.3-5.2,4.2c-0.5,0.2-0.8,0.7-0.7,1.2
			c0,0.1,0.1,0.2,0.1,0.3l7.7,14.4c0.2,0.3,0.3,0.7,0.1,1.1c-0.2,0.3-0.5,0.4-1.1,0.4h-6.9c-0.7,0-1.4-0.4-1.7-1.1l-7.4-13.7
			c-0.2-0.3-0.4-0.6-0.7-0.8c-0.3-0.2-0.6-0.3-1-0.3h-3.2c-0.5-0.1-1.1,0.2-1.2,0.8c0,0.1,0,0.3,0,0.4v12.9c0,0.5-0.1,0.9-0.5,1.3
			c-0.3,0.3-0.8,0.5-1.3,0.5h-5.3c-0.5,0-0.9-0.1-1.3-0.5c-0.3-0.3-0.5-0.8-0.5-1.3L231.8,38.2z M249.7,54.4c0.7,0,1.4-0.1,2-0.4
			c0.6-0.3,1.2-0.6,1.6-1.1c0.5-0.5,0.9-1,1.1-1.6c0.5-1.3,0.5-2.7,0-4c-0.3-0.6-0.6-1.2-1.1-1.6c-0.5-0.5-1-0.8-1.6-1.1
			c-0.6-0.3-1.3-0.4-2-0.4h-7.9c-0.5-0.1-1.1,0.3-1.2,0.8c0,0.1,0,0.3,0,0.4v8c-0.1,0.5,0.3,1.1,0.8,1.2c0.1,0,0.3,0,0.4,0H249.7z"
			/>
	</g>
</g>
</svg>
