<?xml version="1.0" encoding="utf-8"?>
<!-- Generator: Adobe Illustrator 27.1.0, SVG Export Plug-In . SVG Version: 6.00 Build 0)  -->
<svg version="1.1" id="Layer_1" xmlns="http://www.w3.org/2000/svg" xmlns:xlink="http://www.w3.org/1999/xlink" x="0px" y="0px"
	 viewBox="0 0 841.9 595.3" style="enable-background:new 0 0 841.9 595.3;" xml:space="preserve">
<style type="text/css">
	.st0{fill:#BE1E2D;}
	.st1{fill-rule:evenodd;clip-rule:evenodd;fill:#BE1E2D;}
</style>
<g>
	<g>
		<path class="st0" d="M241.4,363.7c0,0.6-0.5,1.1-1.1,1.1h-19.5c-0.6,0-1.1-0.5-1.1-1.1v-85.3c0-0.6,0.5-1.1,1.1-1.1h19.5
			c0.6,0,1.1,0.5,1.1,1.1V363.7z"/>
	</g>
	<path class="st0" d="M241.9,257c0,6.3-5.1,11.3-11.3,11.3c-6.3,0-11.3-5.1-11.3-11.3c0-6.3,5.1-11.3,11.3-11.3
		C236.8,245.7,241.9,250.8,241.9,257z"/>
</g>
<g>
	<g>
		<path class="st0" d="M340.2,364.8c4.5,0,14.4,0,18.5,0c0.9,0,1.4-0.1,1.4-1.2c0-7.6-0.1-51.8,0-57.4c0-3.7,0.8-7.2,4-9.7
			c3.1-2.4,10.3-3.5,14.4,1.7c0.9,1.1,1.6,1,2.5,0.2c1.2-1,2.4-2.1,3.6-3.1c3.2-2.7,6.4-5.4,9.6-8.1c0.8-0.7,1.2-1.3,0.3-2.2
			c-4.4-4.3-9.2-7.9-15.4-9.3c-5.1-1.1-10.1-1.3-15.2-0.3c-3.8,0.8-7.3,2.1-10.6,4.2c-3.6,2.3-6.8,5.1-9.2,8.5
			c-4,5.8-6,12.4-6.5,19.2c-0.3,4.4,0.3,46,0.4,55.9C337.9,364.9,338.8,364.8,340.2,364.8z"/>
	</g>
</g>
<g>
	<g>
		<path class="st1" d="M553.2,362.7c0-13.8,0-111.6-0.1-113.6c0-1.1,0.2-1.7,1.6-1.7c6.2,0.1,12,0,18.2,0c1,0,1.3,0.3,1.3,1.3
			c0,5.8,0,26.5,0,31.8c1.2-0.5,2-0.7,2.7-1.1c5.8-2.8,11.8-3.4,18.1-2c6.8,1.5,12.4,5.1,16.4,10.6c3.2,4.4,5.2,9.5,5.2,15.2
			c0.1,8.6,0.2,47.7,0.4,58.6c0,2.2-0.1,2.3-2.2,2.3c-5.9-0.1-11.5-0.1-17.3-0.1c-1.3,0-1.8-0.3-1.8-1.7c0-9.8,0.2-47.1,0-55.8
			c-0.2-8.2-7.5-12.2-14.2-10c-3.9,1.3-6.3,4.3-6.6,8.5c-0.3,5.1,0.2,57.3,0,57.9c-0.1,0.4-0.6,0.9-1,0.9c-6.3,0-13,0.1-19.7,0
			C553.6,363.9,553.2,363.4,553.2,362.7z"/>
	</g>
</g>
<path class="st1" d="M257.2,321.5c0-4.3-0.1-8.6,0-12.9c0.3-8.4,2.7-16.2,8.1-22.8c4.9-5.8,11.2-9.2,18.7-10.4
	c4.8-0.8,9.6-0.8,14.2,0.6c7.5,2.3,13.5,6.5,18.2,12.8c3.9,5.3,5.3,11.1,5.3,17.5c0,5.9,0,11.9,0,17.8c0,2.9,0.2,5.8,0.1,8.7
	c-0.4,7.8-2.7,16.8-7.7,22.9c-5.1,4.9-9.7,7.6-17.2,9c-10.2,1.9-21-0.2-28.9-7c-4.6-3.9-7.5-9-9.2-14.9c-1-3.6-1.6-7.2-1.6-11
	C257.2,328.5,257.2,325,257.2,321.5C257.2,321.5,257.2,321.5,257.2,321.5z M300.3,306.4c0-7.5-3.3-12.2-10.8-12.2
	c-6.7,0.1-10.3,4.4-10.6,12.6c-0.3,7.2-0.1,27.1-0.1,28.4c0,8.4,4,12,10.7,12.1c7.2-0.1,10.8-3.7,10.8-12.1
	C300.4,330.6,300.8,313.9,300.3,306.4z"/>
<path class="st1" d="M413.3,364.3c-9.4-0.7-15.4-4.7-20.1-13.4c-3.3-6.2-4.4-15.1-2.8-22c1.6-6.9,5.6-12,11.1-15.9
	c5.3-3.7,11.4-4.2,17.9-4.3c5.3-0.2,9.5-0.2,12.7-0.3c1.7,0,1.4-0.1,1.4-1.8c0-1.7,0.1-4.7,0-6.3c-0.3-3.4-2.6-5.1-6.7-5.4
	c-3.9-0.3-19.1-0.1-23.3,0c-1,0-1.4-0.2-1.4-1.3c0.1-5.6,0.1-11.2,0.2-16.9c0-0.9,0.3-1.4,1.3-1.4c6.4,0,11-0.2,27.1,0.3
	c20.1,1.9,24.7,20,24.7,27.9c0,0-0.2,52.1-0.2,59.4c0,1-0.3,1.3-1.3,1.3C448.1,364.3,413.3,364.3,413.3,364.3z M417,327.5
	c-2.5,0.1-5.7,2.9-5.8,8.2c0,4.4,3.3,8.6,5.8,8.6c4.7,0,11,0,15.7,0c0.8,0,0.9-0.1,0.9-0.9c0-4,0-10.3,0-15c0-0.2,0.3-1-0.6-1
	C430,327.4,420.8,327.4,417,327.5z"/>
<path class="st1" d="M705.4,329.1c-3.2,0-3.2,0-3.3,3.2c0,2.8,0,5.6,1.7,8.2c3.4,5.4,11.7,6.5,15.9,1.9c1.5-1.7,1.6-1.6,3.3-0.1
	c4,3.4,8,6.7,12.1,10c1.1,0.9,1.2,1.6,0.2,2.6c-3.2,3.3-6.8,6-11,7.5c-3.4,1.3-7.3,1.7-11,2c-6.3,0.5-12.2-1.3-17.5-4.6
	c-5.2-3.2-9.3-7.4-11.9-13c-2.4-5.1-3.2-10.5-3.3-16c-0.1-7.1-0.1-14.1-0.1-21.2c0-7.5,1.5-14.7,6-20.9c3.2-4.4,7.4-7.7,12.4-10
	c5.4-2.5,11-3.3,16.8-2.7c4.9,0.5,9.4,2.1,13.7,4.8c6.1,3.8,10.1,9.2,12.6,15.8c1.7,4.2,2,8.7,1.9,13.2c-0.1,5.9-0.1,11.8,0,17.6
	c0,1.5-0.6,1.6-2,1.6C735.7,329,711.3,329.1,705.4,329.1z M722.6,306.8c-0.1-5.3-1.8-8.5-5.5-10.6c-3.9-2.2-9.3-1.3-12.1,1.5
	c-2.7,2.7-3.4,6-3.2,9.6c0.1,2.3,0.1,2.4,2.4,2.4c5,0,10-0.1,15.1,0C723.4,309.8,722.6,309.4,722.6,306.8z"/>
<path class="st1" d="M200.4,199.6c0-0.9-0.7-1.3-1.4-1.3c-5.7,0-26.9,0-32.2,0c-1.2,0-1.2,1-1.2,1V344c0,13.5-5.7,19.3-17.2,19.4
	c-10.7-0.1-17.2-5.9-17.2-19.4c0-2.1-0.4-34.1,0.1-45.6c0.5-13.1,6.4-20.1,17.1-20.2c1.8,0,3.4,0.2,4.9,0.5c0.1,0,0.2,0,0.3-0.1
	v-29.4c-0.1-0.2-0.2-0.3-0.4-0.5c-1.2-0.3-2.5-0.6-3.8-0.8c-3.7-0.5-7.5-0.6-11.3-0.2c-4.7,0.5-9.2,1.7-13.5,3.6
	c-4.5,1.9-8.7,4.5-12.4,7.8c-2.6,2.3-5,4.8-6.9,7.7c-2.6,3.8-8.4,13.5-8.4,26.3c0,21,0,51.8,0.3,55.8c1.6,19.2,10.9,28.5,14.5,32.2
	c3.2,3.3,6.9,6.1,10.9,8.3c2.7,1.6,5.6,2.8,8.6,3.9c3.6,1.3,10.7,2.7,17,2.7c1.6,0,16.8,0.2,30.3-9.1c19.3-13.2,21.6-34,21.8-38.4
	C200.5,347.4,200.4,214.4,200.4,199.6z"/>
<path class="st1" d="M659.3,364.6c0,0,1,0,1-1c0-21.1-0.1-41.5,0-62.6c0-0.5,0-1.8,1.4-1.8h9.3c1.2-0.5,1.2-1.7,1.2-2.6
	c0-3.9-0.1-13.8,0-14.8c0.1-1.9-0.2-2.3-2-2.3c-2.2,0-6.3,0-8.5,0c-1.2,0-1.4-0.8-1.4-1.8c0-2.4-0.1-22.4,0-29.1
	c0-1-0.4-1.6-1.5-1.6h-17.5c-1.1,0-1.4,0.5-1.4,1.6c0.1,6.7-0.1,26.7-0.1,29.1c0,0.9-0.2,1.8-1.4,1.8c-2.2,0-6.3,0-8.5,0
	c-1.8,0-2.2,0.4-2,2.3c0.1,1.1,0,11,0,14.8c0,0.9,0,2.1,1.2,2.6h9.3c1.4,0,1.4,1.2,1.4,1.8c0.1,21.1,0,41.5,0,62.6c0,1,1,1,1,1
	H659.3z"/>
<path class="st1" d="M494,361.5c0.1,10.6-0.1,21.5,0,32c0,0.6,0.3,1.6-0.7,1.6c-4.3,0-16.2,0.1-19.9,0c-0.7,0-1.2-0.1-1.2-1.3
	c0-13,0-88.5,0-89.2c0-9.1,7.9-28.7,33.1-28.7c22.2,0,31.7,19.3,32.1,28.5c0.2,3.1,0.7,34.8-1.5,41.9c-0.8,2.7-1.8,5.2-3.4,7.5
	c-1.2,1.7-9.5,13.4-28.7,11.4c-1.7-0.2-3.4-0.8-5-1.5C497.3,363.1,494,361.5,494,361.5z M515.5,307.2c0-7.3-3.3-12-10.9-12
	c-6.7,0-10.3,4.3-10.7,12.3c-0.3,7,0,26.6,0,27.9c0,8.3,4,11.8,10.7,11.9c7.2-0.1,10.9-3.6,10.9-11.9
	C515.6,331,516,314.5,515.5,307.2z"/>
</svg>
