<?xml version="1.0" encoding="utf-8"?>
<!-- Generator: Adobe Illustrator 27.1.0, SVG Export Plug-In . SVG Version: 6.00 Build 0)  -->
<svg version="1.1" id="Layer_1" xmlns="http://www.w3.org/2000/svg" xmlns:xlink="http://www.w3.org/1999/xlink" x="0px" y="0px"
	 viewBox="0 0 384.3 384.3" style="enable-background:new 0 0 384.3 384.3;" xml:space="preserve">
<style type="text/css">
	.st0{stroke:#000000;stroke-width:0.24;stroke-linejoin:round;stroke-miterlimit:10;}
	.st1{fill:none;stroke:#A0A0A0;stroke-width:5;stroke-linecap:round;stroke-linejoin:round;stroke-miterlimit:10;}
</style>
<g>
	<path class="st0" d="M67.3,82.2l-5.9,42.5l-11.9,83.8l-3.1,21.8l-1.6,12h15.4l10.1-75.4l5.2-39.6c2,2,13.3,25.9,13.3,25.9
		c9.6,19.3,19.9,38.5,28.9,58.1c3.5,7.7,7.5,15.2,11.3,22.8c0,0,3.6,7.2,4.4,8c1.1,1.1,2.5,0.8,3.2,0c1.1-1.3,3.5-6,4.3-7.5
		c3.4-6.9,5.6-11.1,9-18c9-18,17.7-36.2,26.8-54.2c5.7-11.3,12.1-22.6,17-34.3c0,0,2.8,19.1,4,28.3c2.5,19.2,5.2,38.4,7.9,57.6
		c1.1,7.7,2.1,15.4,3.2,23c0.7,5.6,1.3,11.7,4.1,16.8c15.1,27.6,54.1,35.1,79.5,16.9c17.3-12.4,24.6-39.2,13.7-58.2
		c-3-5.3-7.5-9.6-12.5-13c-4.1-2.7-9.5-4.9-14.4-5.8c2.2-1.1,3-1.5,4.3-2.1c3.2-1.3,6.1-2.9,8.9-4.9c10.2-7.5,19.2-16.7,29-24.7
		v137.8H337V142.2h-9.6l-4.6,0.2l-5.3,4.1l-11.5,9.4c0-4.9-0.7-9.5-2.3-14.2c-12.9-36.1-72.5-35.4-88.2-1.9l13.7,7
		c2.8-5.4,6.7-10,11.8-13.4c13.7-8.9,34.2-6,43.9,7.4c6.9,9.4,7.6,23.9,0.8,33.6c-3.5,5-9.3,8.5-15,10.2c-7.8,2.4-15.9,2.5-24,2.5
		v13.7c13.8,0,29.5,0.4,39.8,11c10.2,10.6,10.5,28.2,2.4,40.1c-4.5,6.6-11.5,11.4-19.2,13.5c-17.3,4.8-37.1-3.6-43.9-20.7
		c-2.5-6.2-2.5-13.6-3.5-20.2c-1.9-12.9-3.7-25.8-5.5-38.6c-3.2-22.3-6.3-44.7-9.6-67c-1.2-8.2-5-32.7-5.2-36.7
		c-3.7,1.4-4.9,4.2-6.4,7.4c-3.7,8-7.7,15.9-11.7,23.8c-10.6,21.2-21,42.5-31.3,63.8c-5.8,12-11.1,24.7-17.8,36.2
		c-4.1-9.8-9.5-19-14.1-28.6c-11.7-24.1-23.7-48.1-35.6-72c-3.9-7.8-7.7-15.7-11.6-23.5C72,86.2,71,83.1,67.3,82.2L67.3,82.2z"/>
	<polygon class="st1" points="381.8,2.5 2.5,2.5 2.5,381.8 381.8,381.8 381.8,2.5 	"/>
</g>
</svg>
