<?xml version="1.0" encoding="utf-8"?>
<!-- Generator: Adobe Illustrator 27.1.0, SVG Export Plug-In . SVG Version: 6.00 Build 0)  -->
<svg version="1.1" id="Layer_1" xmlns="http://www.w3.org/2000/svg" xmlns:xlink="http://www.w3.org/1999/xlink" x="0px" y="0px"
	 viewBox="0 0 230.3 232.2" style="enable-background:new 0 0 230.3 232.2;" xml:space="preserve">
<style type="text/css">
	.st0{fill:#222221;}
</style>
<g>
	<path class="st0" d="M53.2,55h-7.3V11.4H31.4V55h-7.3V11.4H9.6V55H2.3V4.2h21.8h29V55z"/>
	<path class="st0" d="M9.6,69.5v14.5h43.6v7.3H9.6v14.5h43.6v7.3H2.3V91.3V69.5v-7.3h50.8v7.3H9.6z"/>
	<path class="st0" d="M53.2,163.9v7.3H2.3v-50.8h7.3v43.6H53.2z"/>
	<path class="st0" d="M53.2,186.3l-41.6,17.6l41.6,17.5v7.8L9.6,210.9v18.4H2.3v-29.2v-21.6h7.3V197l43.6-18.5V186.3z"/>
	<path class="st0" d="M111.2,178.5v50.8H89.5H67.7h-7.3v-50.8h7.3V222h14.5v-43.6h7.3V222H104v-43.6H111.2z"/>
	<path class="st0" d="M125.8,185.7v14.5h43.6v7.3h-43.6V222h43.6v7.3h-50.8v-21.8v-21.8v-7.3h50.8v7.3H125.8z"/>
	<path class="st0" d="M220.1,222v-14.5h-21.8v-7.3h29V222v7.3h-43.6h-7.3v-43.6v-7.3h50.8v7.3h-43.6V222H220.1z"/>
</g>
</svg>
