<?xml version="1.0" encoding="utf-8"?>
<!-- Generator: Adobe Illustrator 27.1.0, SVG Export Plug-In . SVG Version: 6.00 Build 0)  -->
<svg version="1.1" id="Logo" xmlns="http://www.w3.org/2000/svg" xmlns:xlink="http://www.w3.org/1999/xlink" x="0px" y="0px"
	 viewBox="0 0 211.2 58.5" style="enable-background:new 0 0 211.2 58.5;" xml:space="preserve">
<style type="text/css">
	.st0{fill:#1D1D1B;}
</style>
<g>
	<g>
		<path class="st0" d="M0.9,0h4.5v9.8h0.1c0.5-0.9,1.2-1.6,2.1-2.2C8.5,7,9.6,6.7,11,6.7c2.1,0,3.7,0.7,4.8,2.2
			c1.1,1.4,1.6,3.2,1.6,5.4v11.1h-4.5V14.5c0-2.8-1.1-4.2-3.2-4.2c-1.4,0-2.4,0.5-3.2,1.6c-0.7,1.1-1.1,2.4-1.1,4.1v9.3H0.9V0z"/>
		<path class="st0" d="M25,24.7c-1.4-0.8-2.4-2-3.2-3.4c-0.7-1.4-1.1-3.1-1.1-4.9c0-1.9,0.4-3.5,1.2-5c0.8-1.5,1.8-2.6,3.2-3.4
			c1.4-0.8,2.9-1.2,4.6-1.2c1.6,0,3.1,0.4,4.3,1.1c1.2,0.7,2.2,1.8,2.9,3.1c0.7,1.4,1,3,1,4.8v1.3H25.2c0.1,1.7,0.5,3,1.4,3.9
			c0.8,0.9,1.9,1.4,3.2,1.4c1.1,0,1.9-0.3,2.6-0.8s1.1-1.2,1.2-2.2h4.6c-0.3,2.1-1.2,3.7-2.8,4.9c-1.6,1.1-3.4,1.7-5.5,1.7
			C28,25.9,26.4,25.5,25,24.7z M32.4,11.2c-0.6-0.7-1.5-1.1-2.7-1.1c-1.1,0-2,0.3-2.7,1c-0.8,0.6-1.3,1.6-1.5,2.8h8
			C33.3,12.8,33,11.9,32.4,11.2z"/>
		<path class="st0" d="M44.2,24.5c-0.9-0.8-1.4-2.1-1.4-3.7V8h-3.8V7.2h3.8V3.5l4.1-3h0.4v6.7h5.5v3.3h-5.6v11.8
			c0,0.7,0.2,1.3,0.5,1.8c0.4,0.4,0.9,0.6,1.6,0.6c1,0,1.7-0.4,2.3-1.2c0.6-0.8,0.9-1.7,0.9-2.9h0.8c-0.1,1.6-0.6,2.9-1.4,3.8
			c-0.8,0.9-2,1.3-3.7,1.3C46.5,25.7,45.1,25.3,44.2,24.5z"/>
		<path class="st0" d="M5,57.1c-1.6-1-2.8-2.3-3.7-4C0.4,51.4,0,49.5,0,47.3c0-2.2,0.5-4.1,1.4-5.8c0.9-1.7,2.2-3,3.8-4
			c1.7-1,3.6-1.4,5.7-1.4c2.6,0,4.9,0.8,6.7,2.3c1.8,1.5,2.9,3.7,3.1,6.6h-5.4c-0.1-1.4-0.6-2.5-1.4-3.3c-0.8-0.8-1.8-1.2-3.2-1.2
			c-1.6,0-2.9,0.6-3.9,1.9c-1,1.2-1.5,2.9-1.5,5c0,2.1,0.5,3.8,1.5,5c1,1.3,2.3,1.9,3.9,1.9c1.4,0,2.5-0.4,3.3-1.1s1.3-1.8,1.4-3.1
			h5.4c-0.3,2.9-1.5,5-3.4,6.4s-4.3,2.2-7,2.2C8.4,58.5,6.5,58,5,57.1z"/>
		<path class="st0" d="M26.3,55.2c-0.7-0.6-1.7-0.9-3-0.9V39.8h4v14.5h4.3c1.3,0,2.3-0.3,3-0.9c0.7-0.6,1-1.5,1-2.7V39.8h4v18.1
			H27.3C27.3,56.7,27,55.8,26.3,55.2z"/>
		<path class="st0" d="M41.8,57.2h3.9V32.7h-3.9V32h8.2v25.2h3.9v0.7H41.8V57.2z"/>
		<path class="st0" d="M54.6,40.4v-0.7h3.3v0.7h-2.5l2.1,2.7L57,43.5L54.6,40.4z M56.5,54c0-0.3,0-0.9,0.1-1.7l2.5-18.1h4.2
			l-2.7,19.5c-0.1,0.4-0.1,0.8-0.1,1.1c0,0.5,0.1,0.9,0.3,1.2c0.2,0.3,0.5,0.4,1,0.4c0.4,0,0.7-0.1,1-0.4c0.3-0.3,0.5-0.7,0.5-1.3
			c0-1.1-0.6-2.5-1.7-4.3l0.5-0.3c1.3,2,1.9,3.7,1.9,5c0,1.1-0.4,1.9-1.1,2.4s-1.6,0.8-2.5,0.8C57.8,58.2,56.5,56.8,56.5,54z
			 M63.1,39.8h3.4v0.7h-3.4V39.8z"/>
		<path class="st0" d="M69.9,56.3c-1.1-1.4-1.7-3.3-1.7-5.6v-11h4.5v10.8c0,2.8,1.1,4.2,3.2,4.2c1.4,0,2.4-0.5,3.1-1.6
			c0.7-1.1,1-2.5,1-4.4v-9h4.5V51c0,2.8,0.4,5.1,1.3,6.9H81c-0.3-0.8-0.5-1.7-0.6-2.7h-0.1c-0.5,0.9-1.2,1.7-2.2,2.3
			c-1,0.6-2.1,0.9-3.4,0.9C72.6,58.4,71.1,57.7,69.9,56.3z"/>
		<path class="st0" d="M90,56.9c-0.9-1-1.4-2.3-1.4-4V40.5h-3.4v-0.7h7.8v13.1h-3.4c0,1.4,0.4,2.5,1.2,3.3c0.8,0.8,1.9,1.3,3.3,1.3
			c1,0,2-0.2,2.8-0.7s1.5-1.2,2-2c0.5-0.9,0.7-1.9,0.7-3V40.5h-3.4v-0.7h7.8v17.4h2.9v0.7h-7.2V55h0c-1.2,2.3-3.1,3.4-5.6,3.4
			C92.2,58.4,90.9,57.9,90,56.9z"/>
		<path class="st0" d="M108.5,39.8h4.5v3.7h0.1c0.4-1.3,1-2.3,1.9-3.1c0.9-0.8,2-1.2,3.3-1.2c0.7,0,1.4,0.1,2,0.4v4.7
			c-0.7-0.3-1.4-0.4-2.2-0.4c-1.5,0-2.7,0.6-3.7,1.8c-0.9,1.2-1.4,2.8-1.4,4.9v7.3h-4.5V39.8z"/>
		<path class="st0" d="M124.1,43.4h-3.3v-3.7h3.3v-1.7c0-2,0.5-3.5,1.6-4.5c1.1-1,2.5-1.6,4.1-1.6c1.1,0,2,0.1,2.7,0.4v3.7
			c-0.6-0.2-1.2-0.3-1.7-0.3c-0.7,0-1.3,0.2-1.7,0.5c-0.4,0.4-0.6,1-0.6,1.9v1.4h4v3.7h-4v14.4h-4.5V43.4z"/>
		<path class="st0" d="M137.6,57c-1.4-0.8-2.6-1.9-3.3-3.3c-0.8-1.4-1.2-3-1.2-4.9c0-1.9,0.4-3.5,1.2-4.9c0.8-1.4,1.9-2.5,3.3-3.3
			c1.4-0.8,3.1-1.2,5.1-1.2s3.6,0.4,5.1,1.2c1.4,0.8,2.6,1.9,3.3,3.3c0.8,1.4,1.2,3,1.2,4.9c0,1.9-0.4,3.5-1.2,4.9
			c-0.8,1.4-1.9,2.5-3.3,3.3c-1.4,0.8-3.1,1.2-5.1,1.2S139.1,57.7,137.6,57z M146.3,55.4c0.8-1.3,1.2-3.5,1.2-6.6
			c0-3.1-0.4-5.3-1.2-6.6c-0.8-1.3-2-2-3.6-2c-1.6,0-2.8,0.7-3.6,2s-1.2,3.5-1.2,6.6c0,3.1,0.4,5.3,1.2,6.6c0.8,1.3,2,2,3.6,2
			C144.2,57.3,145.4,56.7,146.3,55.4z"/>
		<path class="st0" d="M152.8,57.2h2.9V40.5h-2.9v-0.7h7.2v3h0c0.5-1,1.3-1.8,2.3-2.4c1-0.6,2.2-1,3.7-1c1.6,0,2.9,0.5,3.9,1.5
			c0.9,1,1.4,2.3,1.4,4v12.3h2.5v0.7h-9.6v-0.7h2.7V44.9h3.4c0-1.4-0.4-2.5-1.2-3.3c-0.8-0.8-1.9-1.3-3.3-1.3c-1,0-2,0.2-2.9,0.7
			c-0.9,0.5-1.6,1.2-2.2,2c-0.5,0.9-0.8,1.9-0.8,3v11.2h2.7v0.7h-10V57.2z"/>
		<path class="st0" d="M178.1,57.2c-1.3-0.8-2.2-1.9-3-3.4c-0.7-1.5-1.1-3.1-1.1-5c0-1.9,0.4-3.6,1.1-5c0.7-1.5,1.7-2.6,3-3.4
			c1.3-0.8,2.7-1.2,4.2-1.2c1.2,0,2.2,0.3,3.2,0.8c1,0.5,1.7,1.3,2.4,2.2h0.1v-9.7h4.5v18v7.3h-4.5v-2.4h-0.1
			c-0.6,1-1.4,1.7-2.3,2.2c-1,0.5-2,0.7-3.2,0.7C180.7,58.4,179.3,58,178.1,57.2z M186.7,53.2c0.8-1.1,1.2-2.6,1.2-4.4
			c0-1.8-0.4-3.3-1.2-4.4c-0.8-1.1-1.9-1.7-3.3-1.7c-1.4,0-2.6,0.6-3.4,1.7c-0.8,1.1-1.3,2.6-1.3,4.4c0,1.8,0.4,3.3,1.3,4.4
			c0.8,1.1,2,1.6,3.4,1.6C184.8,54.9,185.9,54.3,186.7,53.2z"/>
		<path class="st0" d="M207.3,40c1.1,0.6,2,1.3,2.6,2.3s0.9,2,1,3h-4.4c0-0.8-0.4-1.4-0.9-2s-1.4-0.8-2.4-0.8
			c-0.9,0-1.7,0.2-2.2,0.5c-0.5,0.4-0.8,0.8-0.8,1.4c0,0.5,0.2,0.8,0.5,1.1c0.3,0.3,0.8,0.5,1.5,0.7l4,0.9c1.7,0.4,2.9,1,3.8,1.9
			c0.9,0.9,1.3,1.9,1.3,3.3c0,1.2-0.3,2.3-1,3.2c-0.7,0.9-1.6,1.6-2.8,2.1c-1.2,0.5-2.6,0.7-4.1,0.7c-2.4,0-4.4-0.6-5.9-1.8
			c-1.5-1.2-2.3-2.9-2.4-5h4.4c0,1.1,0.4,2,1.1,2.6c0.7,0.6,1.7,0.9,2.8,0.9c1.1,0,2-0.2,2.6-0.6c0.7-0.4,1-0.9,1-1.6
			c0-0.5-0.2-0.8-0.5-1.1c-0.3-0.3-0.9-0.5-1.7-0.7l-3.9-0.9c-3.3-0.7-5-2.4-5-5c0-1.1,0.3-2.1,0.9-3c0.6-0.9,1.5-1.6,2.6-2.1
			c1.1-0.5,2.4-0.8,3.9-0.8C204.8,39.2,206.2,39.5,207.3,40z"/>
	</g>
	<g>
		<g>
			<path class="st0" d="M65.8,7.3h5.7c3.2,0,5.3,1.7,5.3,4.5c0,2.8-2.1,4.5-5.3,4.5h-3.6v6h-2V7.3z M71.4,14.5c2,0,3.3-1,3.3-2.7
				c0-1.7-1.3-2.7-3.3-2.7h-3.6v5.4H71.4z"/>
			<path class="st0" d="M78.5,11.5h1.9v2.4h0.1c0.5-1.5,1.5-2.7,3.4-2.7c0.4,0,0.9,0.1,1.2,0.2v1.9c-0.4-0.1-0.8-0.3-1.3-0.3
				c-2,0-3.3,1.7-3.3,4.4v4.7h-1.9V11.5z"/>
			<path class="st0" d="M86.4,7.3h2.1v2.4h-2.1V7.3z M86.5,11.5h1.9v10.7h-1.9V11.5z"/>
			<path class="st0" d="M91.2,11.5H93v1.9h0c0.6-1.2,1.8-2.2,3.5-2.2c2.6,0,3.9,2,3.9,4.5v6.5h-1.9v-6.4c0-2-0.9-3-2.5-3
				c-2,0-3.1,1.8-3.1,4v5.4h-1.9V11.5z"/>
			<path class="st0" d="M111,14.8h-1.8c-0.1-1.1-1-2-2.5-2c-1.4,0-2.2,0.6-2.2,1.5c0,0.7,0.4,1.1,1.5,1.4l2.5,0.6
				c1.9,0.4,2.8,1.4,2.8,2.9c0,2-1.8,3.4-4.4,3.4c-2.7,0-4.5-1.5-4.7-3.9h1.8c0.1,1.6,1.2,2.4,2.9,2.4c1.5,0,2.6-0.6,2.6-1.7
				c0-0.7-0.3-1.1-1.6-1.4l-2.4-0.6c-2-0.5-2.8-1.5-2.8-2.8c0-1.9,1.7-3.3,4.1-3.3C109.4,11.3,110.9,12.9,111,14.8z"/>
			<path class="st0" d="M118.3,7.3h5.8c3.1,0,5,1.3,5,3.7c0,1.6-1,2.9-2.8,3.4v0c2.2,0.4,3.5,1.6,3.5,3.6c0,2.6-2.1,4.2-5.3,4.2
				h-6.3V7.3z M124.2,13.6c2,0,2.9-0.9,2.9-2.3c0-1.4-1-2.2-2.9-2.2h-3.9v4.5H124.2z M124.6,20.4c2,0,3.1-0.9,3.1-2.6
				c0-1.5-1.2-2.5-3.2-2.5h-4.3v5.1H124.6z"/>
			<path class="st0" d="M131.3,16.9c0-3.3,2.2-5.7,5.1-5.7c2.8,0,4.7,2,4.7,5.1v0.7h-7.9c0.1,2.4,1.3,3.8,3.3,3.8
				c1.5,0,2.6-0.9,2.8-2.2h1.9c-0.4,2.4-2.4,3.7-4.7,3.7C133.3,22.5,131.3,20.2,131.3,16.9z M139.1,15.7c0-1.6-1-2.9-2.7-2.9
				c-1.6,0-2.8,1-3.1,2.9H139.1z"/>
			<path class="st0" d="M143.2,11.5h1.9v2.4h0.1c0.5-1.5,1.5-2.7,3.4-2.7c0.4,0,0.9,0.1,1.2,0.2v1.9c-0.4-0.1-0.8-0.3-1.3-0.3
				c-2,0-3.3,1.7-3.3,4.4v4.7h-1.9V11.5z"/>
			<path class="st0" d="M151.2,11.5h1.9v1.9h0c0.6-1.2,1.8-2.2,3.5-2.2c2.6,0,3.9,2,3.9,4.5v6.5h-1.9v-6.4c0-2-0.9-3-2.5-3
				c-2,0-3.1,1.8-3.1,4v5.4h-1.9V11.5z"/>
			<path class="st0" d="M163.2,7.3h1.9v6.2h0c0.6-1.2,1.8-2.2,3.5-2.2c2.6,0,3.9,2,3.9,4.5v6.5h-1.9v-6.4c0-2-0.9-3-2.5-3
				c-2,0-3.1,1.8-3.1,4v5.4h-1.9V7.3z"/>
			<path class="st0" d="M174.3,19.5c0-2.3,1.9-3.2,5.6-3.7l1.5-0.2V15c0-1.5-0.9-2.2-2.3-2.2c-1.6,0-2.5,0.9-2.6,2.3h-1.8
				c0.1-2.5,2-3.8,4.5-3.8c2.4,0,4.1,1.2,4.1,3.8v4.7c0,0.8,0.3,1.2,0.9,1.2c0.3,0,0.6-0.1,0.8-0.2v1.5c-0.3,0.2-0.8,0.3-1.3,0.3
				c-1.4,0-2.2-0.9-2.3-2.2c-0.7,1.6-2.2,2.2-3.7,2.2C175.6,22.5,174.3,21.2,174.3,19.5z M178.1,21c1.7,0,3.3-1.3,3.3-3.7v-0.4
				l-1.4,0.2c-2.5,0.4-3.8,1-3.8,2.2C176.2,20.3,176.8,21,178.1,21z"/>
			<path class="st0" d="M186.4,11.5h1.9v2.4h0.1c0.5-1.5,1.5-2.7,3.4-2.7c0.4,0,0.9,0.1,1.2,0.2v1.9c-0.4-0.1-0.8-0.3-1.3-0.3
				c-2,0-3.3,1.7-3.3,4.4v4.7h-1.9V11.5z"/>
			<path class="st0" d="M193.2,16.9c0-3.4,2.1-5.6,4.9-5.6c1.5,0,2.8,0.7,3.5,2.1h0V7.3h1.9v11v3.9h-1.9v-1.8h0
				c-0.7,1.3-2,2.1-3.5,2.1C195.4,22.5,193.2,20.2,193.2,16.9z M198.5,21c2,0,3.3-1.7,3.3-4.1c0-2.5-1.3-4.1-3.3-4.1
				c-2,0-3.3,1.6-3.3,4.1C195.2,19.4,196.5,21,198.5,21z"/>
		</g>
	</g>
</g>
</svg>
