<?xml version="1.0" encoding="utf-8"?>
<!-- Generator: Adobe Illustrator 27.1.0, SVG Export Plug-In . SVG Version: 6.00 Build 0)  -->
<svg version="1.1" id="Layer_1" xmlns="http://www.w3.org/2000/svg" xmlns:xlink="http://www.w3.org/1999/xlink" x="0px" y="0px"
	 viewBox="0 0 759.6 759.6" style="enable-background:new 0 0 759.6 759.6;" xml:space="preserve">
<style type="text/css">
	.st0{fill:#0063AF;}
	.st1{fill:#FFFFFF;}
</style>
<rect id="XMLID_275_" class="st0" width="759.6" height="759.6"/>
<g id="XMLID_268_">
	<path id="XMLID_274_" class="st1" d="M364.1,297.1l87.7,0.6L347.7,176c-2.2-1.4-6-3-12-3c-8.6,0-61.8,0-84.2,0L364.1,297.1z"/>
	<path id="XMLID_273_" class="st1" d="M455.5,295.9l81.4-108.1c-16,0-58.2,0-65,0c-8.2,0-11.8,4-11.8,4L411.9,245L455.5,295.9z"/>
	<path id="XMLID_272_" class="st1" d="M220.2,453.6l49.2-54.4l-54.2-65.4c0,0-4.4-5.6-4-12c0.6-7.4,4.6-11.4,4.6-11.4l0,0l76.2-87.3
		L246.6,173c-2.8,0-4.6,0-4.6,0s0.2,0,0.6,0c-0.2,0-0.4,0-0.6,0c-5.4,0-11,2.4-15,6.8L109.9,305.9c0,0-3.8,3.4-3.8,10.8
		c0,7.2,4.2,11.8,4.2,11.8l0,0L198,442.2c4,5.8,9,11.4,16.6,11.4c0.8,0,1.6,0,2.4-0.2c-1,0.2-1.6,0.2-1.6,0.2S217,453.6,220.2,453.6
		z"/>
	<path id="XMLID_271_" class="st1" d="M647.6,305.7L554.4,193c-3-3.4-7.2-5.2-11.2-5.2c-0.2,0-0.4,0-0.6,0c0.4,0,0.6,0,0.6,0
		s-0.4,0-1.2,0l-33.4,44.4l60.2,73c0,0,2.6,2.8,3,8.4c0.4,4.8-2.6,9.4-2.6,9.4l-41.4,58l42.8,50.4c0.2,0,0.4,0,0.6,0.2
		c-0.2,0-0.4,0-0.6,0l0.2,0.2c1.4,0,2,0,2,0s-0.6,0-1.6-0.2c0.8,0.2,1.4,0.2,2.2,0.2c5.8,0,9.6-4.2,12.6-8.6l62.8-92.1
		c0,0,4.8-6,4.8-11.6C653.5,312.7,647.6,305.7,647.6,305.7z"/>
	<path id="XMLID_270_" class="st1" d="M452.7,300.3l-88.9,0.2L225.6,453.8c27.6,0,101.3,0,109.5,0c10,0,15.2-7.6,15.2-7.6l57.6-79.6
		L452.7,300.3z"/>
	<path id="XMLID_269_" class="st1" d="M461.7,309.1l-5.6-6.6l-41.8,61.2l48.8,62.2c0,0,5.2,5.8,15.6,5.8c6.2,0,66.2,0,87.1,0
		L461.7,309.1z"/>
</g>
<g>
	<path class="st1" d="M201.2,534.8l-23.4,72.6h-7.9l-19.1-59.2l-19.1,59.2h-8.1l-23.3-72.6h8.3l19.1,60.7l19.2-60.7h7.8l19.1,60.7
		l19.2-60.7H201.2z"/>
	<path class="st1" d="M253.8,581c0,2.1-0.2,3.8-0.2,3.8H214c1,10.9,6.4,15.6,17.6,15.6c7.9,0,14-1.3,18.6-4v8.1
		c-5.2,2.5-11.6,3.8-19.4,3.8c-11.3,0-24.8-4.7-24.8-27.3c0-5.8-0.9-28.9,23.8-28.9C254.6,552.1,253.8,579,253.8,581z M245.8,577.9
		c0-2.6-0.9-18.4-15.9-18.4c-10.7,0-15.1,5-15.9,18.4H245.8z"/>
	<path class="st1" d="M334.5,534.8v72.6h-7.8v-59.8l-25.7,37l-25.6-37v59.8h-7.8v-72.6h8.5l24.9,36.9l25-36.9H334.5z"/>
	<path class="st1" d="M394.6,574.7v16.3c0,15-15.2,17.2-22.3,17.2c-7.1,0-22.8-2.2-22.8-17.5c0-18,23.4-17.9,28.4-17.9
		c4.9,0,8.7,0.5,8.7,0.5c0-10.2-6.1-13.5-15.9-13.5c-7.8,0-13.8,1.9-15.9,2.6v-7.6c4-1.4,9.6-2.8,16.3-2.8
		C386.4,552.1,394.6,559.9,394.6,574.7z M386.7,580.6c0,0-3.6-0.7-9.7-0.7c-6.5,0-19.7,0.8-19.7,10.8c0,8.6,8.2,10.2,14.9,10.2
		c6.7,0,14.5-1.6,14.5-9.9C386.7,582.7,386.7,580.6,386.7,580.6z"/>
	<path class="st1" d="M455.3,607.4h-10.5l-20.8-23.8l-6.7,7.3v16.5h-7.8v-75h7.8v47.4l24.4-26.7h10.7L429.2,578L455.3,607.4z"/>
	<path class="st1" d="M508.8,581c0,2.1-0.2,3.8-0.2,3.8h-39.6c1,10.9,6.4,15.6,17.6,15.6c7.9,0,14-1.3,18.6-4v8.1
		c-5.2,2.5-11.6,3.8-19.4,3.8c-11.3,0-24.8-4.7-24.8-27.3c0-5.8-0.9-28.9,23.8-28.9C509.5,552.1,508.8,579,508.8,581z M500.7,577.9
		c0-2.6-0.9-18.4-15.9-18.4c-10.7,0-15.1,5-15.9,18.4H500.7z"/>
	<path class="st1" d="M570.9,534.8h13.9l-27.8,72.6h-13.4l-27.9-72.6h13.9l20.6,56.4L570.9,534.8z"/>
	<path class="st1" d="M653.5,607.4h-15.8l-17.3-25.6h-11.8v25.6h-13.1v-72.6h27.9c16.8,0,26.9,8.2,26.9,23.3
		c0,13.8-8.8,19.4-15.9,21.6L653.5,607.4z M623.2,569.8c7.5,0,14.2-1.7,14.2-11.4c0-9.8-6.6-11.4-14.2-11.4h-14.5v22.9H623.2z"/>
</g>
</svg>
