<?xml version="1.0" encoding="utf-8"?>
<!-- Generator: Adobe Illustrator 27.1.0, SVG Export Plug-In . SVG Version: 6.00 Build 0)  -->
<svg version="1.1" id="Layer_1" xmlns="http://www.w3.org/2000/svg" xmlns:xlink="http://www.w3.org/1999/xlink" x="0px" y="0px"
	 viewBox="0 0 1409.7 178" style="enable-background:new 0 0 1409.7 178;" xml:space="preserve">
<style type="text/css">
	.st0{fill:#231F20;}
</style>
<g>
	<path class="st0" d="M163.6,78.7l55.6,0.4l-66-77.2C151.8,1,149.4,0,145.6,0H92.2L163.6,78.7z"/>
	<path class="st0" d="M221.5,77.9l51.6-68.5h-41.2c-5.2,0-7.5,2.5-7.5,2.5l-30.5,33.7L221.5,77.9z"/>
	<path class="st0" d="M72.3,177.9l31.2-34.5L69.2,102c0,0-2.8-3.5-2.5-7.6c0.4-4.7,2.9-7.2,2.9-7.2l48.3-55.4L89.1,0h-2.9h0.4h-0.4
		c-3.4,0-7,1.5-9.5,4.3l-74.3,80c0,0-2.4,2.2-2.4,6.8c0,4.6,2.7,7.5,2.7,7.5l55.6,72.1c2.5,3.7,5.7,7.2,10.5,7.2c0.5,0,1,0,1.5-0.1
		c-0.6,0.1-1,0.1-1,0.1H72.3z"/>
	<path class="st0" d="M343.3,84.1l-59-71.5c-1.9-2.2-4.6-3.3-7.1-3.3h-0.4h0.4h-0.8l-21.2,28.1l38.1,46.3c0,0,1.6,1.8,1.9,5.3
		c0.2,3-1.6,6-1.6,6l-26.2,36.7l27.1,31.9c0.1,0,0.3,0,0.4,0.1h-0.4l0.1,0.1h1.3c0,0-0.4,0-1-0.1c0.5,0.1,0.9,0.1,1.4,0.1
		c3.7,0,6.1-2.7,8-5.4l39.8-58.4c0,0,3-3.8,3-7.3C347.1,88.6,343.3,84.1,343.3,84.1"/>
	<path class="st0" d="M219.7,80.7l-56.4,0.1L75.8,178h69.4c6.3,0,9.6-4.8,9.6-4.8l36.5-50.4L219.7,80.7z"/>
	<path class="st0" d="M225.4,86.3l-3.5-4.2l-26.5,38.8l30.9,39.4c0,0,3.3,3.7,9.9,3.7h55.2L225.4,86.3z"/>
	<polygon class="st0" points="538.6,47 509,139 498.9,139 474.8,64 450.7,139 440.5,139 411,47 421.4,47 445.6,123.9 469.8,47 
		479.8,47 503.9,123.9 528.2,47 	"/>
	<path class="st0" d="M605.4,105.6c0,2.6-0.3,4.8-0.3,4.8h-50.2c1.2,13.8,8.1,19.7,22.3,19.7c10.1,0,17.8-1.7,23.6-5.1v10.2
		c-6.6,3.2-14.8,4.8-24.5,4.8c-14.3,0-31.4-5.9-31.4-34.6c0-7.3-1.1-36.5,30.2-36.5C606.3,68.9,605.4,103,605.4,105.6 M595.2,101.6
		c0-3.3-1.1-23.3-20.1-23.3c-13.5,0-19.2,6.3-20.1,23.3H595.2z"/>
	<polygon class="st0" points="707.5,47 707.5,139 697.6,139 697.6,63.3 665.1,110.1 632.7,63.3 632.7,139 622.7,139 622.7,47 
		633.5,47 665.1,93.7 696.8,47 	"/>
	<path class="st0" d="M783.6,97.6v20.7c0,19-19.3,21.8-28.3,21.8c-9,0-28.8-2.8-28.8-22.2c0-22.8,29.6-22.6,36-22.6
		c6.2,0,11,0.7,11,0.7c0-13-7.7-17.1-20.1-17.1c-9.9,0-17.5,2.3-20.1,3.3v-9.7c5.1-1.8,12.1-3.6,20.7-3.6
		C773.3,68.9,783.6,78.8,783.6,97.6 M773.7,105c0,0-4.6-0.8-12.3-0.8c-8.3,0-25,1-25,13.7c0,10.9,10.3,13,18.9,13
		s18.3-2.1,18.3-12.5V105z"/>
	<polygon class="st0" points="860.6,139 847.3,139 821,108.8 812.4,118 812.4,139 802.5,139 802.5,44 812.4,44 812.4,103.9 
		843.3,70.2 856.8,70.2 827.5,101.7 	"/>
	<path class="st0" d="M928.3,105.6c0,2.6-0.3,4.8-0.3,4.8h-50.2c1.2,13.8,8.1,19.7,22.3,19.7c10.1,0,17.8-1.7,23.6-5.1v10.2
		c-6.6,3.2-14.8,4.8-24.5,4.8c-14.3,0-31.4-5.9-31.4-34.6c0-7.3-1.1-36.5,30.2-36.5S928.3,103,928.3,105.6 M918.1,101.6
		c0-3.3-1.1-23.3-20.1-23.3c-13.5,0-19.2,6.3-20.1,23.3H918.1z"/>
	<polygon class="st0" points="1007,47 1024.6,47 989.5,139 972.5,139 937.2,47 954.9,47 980.9,118.4 	"/>
	<path class="st0" d="M1111.6,139h-20l-21.9-32.4h-14.9V139h-16.5V47h35.3c21.2,0,34.1,10.3,34.1,29.5c0,17.5-11.2,24.5-20.1,27.3
		L1111.6,139z M1073.2,91.4c9.5,0,17.9-2.2,17.9-14.5c0-12.4-8.4-14.5-17.9-14.5h-18.3v29H1073.2z"/>
	<rect x="1133.8" y="127.9" class="st0" width="11" height="11"/>
	<path class="st0" d="M1200,130.5c6.8,0,13.2-1.2,19.3-3.9v9.7c-6.5,2.5-13.4,3.7-20.4,3.7c-14.8,0-32.3-6.1-32.3-35.6
		c0-29.4,17.5-35.6,32.3-35.6c7,0,13.9,1.4,20.4,3.9v9.5c-6.1-2.5-12.5-3.9-19.3-3.9c-16.4,0-23.4,7.9-23.4,26.1
		C1176.6,122.8,1183.6,130.5,1200,130.5"/>
	<path class="st0" d="M1294.9,104.5c0,29.4-17.6,35.6-32.4,35.6c-14.8,0-32.3-6.2-32.3-35.6c0-29.4,17.5-35.6,32.3-35.6
		C1277.2,68.9,1294.9,75.1,1294.9,104.5 M1284.9,104.5c0-18.5-6.8-26.5-22.5-26.5c-15.6,0-22.3,8-22.3,26.5
		c0,18.5,6.8,26.5,22.3,26.5C1278.2,131,1284.9,123,1284.9,104.5"/>
	<path class="st0" d="M1409.7,94.1V139h-9.9V94.1c0-6.5-1.8-15.3-17.1-15.3c-7.7,0-14.5,1.9-19,3.4c1.5,3.4,2.2,7.3,2.2,11.9V139
		h-9.9V94.1c0-6.6-1.8-15.3-17.5-15.3c-6.2,0-12,1.1-16.4,2.5V139h-9.9V75.5c3.6-1.8,14.3-6.6,27.6-6.6c7.6,0,13.8,2.1,18.2,5.7
		c4.8-2.1,14.2-5.7,25.5-5.7C1400.1,68.9,1409.7,78.2,1409.7,94.1"/>
</g>
</svg>
